# xmcd
#
# Track frame offsets:
#	150
#	12516
#	26312
#	36653
#	54513
#	66055
#	83492
#	102679
#	116941
#	132049
#	145600
#	154428
#
# Disc length: 2231 seconds
#
# Revision: 1
# Processed by: cddbd v1.5.2PL0 Copyright (c) Steve Scherf et al.
# Submitted via: audiograbber 1.83.01
#
DISCID=a408b50c
DTITLE=Bradford Monk and the Foggy Hogtown Boys - Bradford Monk
DYEAR=2011
DGENRE=
TTITLE0=Suzanne
TTITLE1=Maybe Baby
TTITLE2=Hold On Darling
TTITLE3=Rosie
TTITLE4=I'm Alright
TTITLE5=Bringing Coal
TTITLE6=The Cowboy and Pearl
TTITLE7=Titanic (When The Great Ship Went Down)
TTITLE8=Love And War
TTITLE9=Remember Everyday
TTITLE10=Sweet Mary
TTITLE11=Too Much Talkin' Not Enough Drinkin'
EXTD=
EXTT0=
EXTT1=
EXTT2=
EXTT3=
EXTT4=
EXTT5=
EXTT6=
EXTT7=
EXTT8=
EXTT9=
EXTT10=
EXTT11=
PLAYORDER=
